<svg viewBox="0 0 401 401" xmlns="http://www.w3.org/2000/svg" xmlns:xlink="http://www.w3.org/1999/xlink"><linearGradient id="a" gradientTransform="matrix(1 0 0 -1 0 441)" gradientUnits="userSpaceOnUse" x1="276.39" x2="124.24" y1="297.71" y2="145.56"><stop offset="0" stop-color="#ffd957"/><stop offset="1" stop-color="#ffb632"/></linearGradient><path d="m178.7 287.35a3.07 3.07 0 0 0 -.85 2.2 22.6 22.6 0 1 0 45.2 0 3 3 0 0 0 -.9-2.2 2.89 2.89 0 0 0 -2.2-.9h-38.95a3.15 3.15 0 0 0 -2.25.9m-1.4-181.35a3.74 3.74 0 0 1 -.95 1.2 73.34 73.34 0 0 0 -36.55 26.8q-14.3 19.5-14.4 44.75-4.15 53.9-4.2 53.9l-15.65 17.55a15 15 0 0 0 -4.25 10.65 14.81 14.81 0 0 0 4.4 10.8v.1a14.9 14.9 0 0 0 10.7 4.25h168a15.07 15.07 0 0 0 10.7-4.25l.05-.1a15.4 15.4 0 0 0 .15-21.4l-15.7-17.7-4-53.6q-.11-25.6-14.35-45h-.05q-13.55-18.8-36.6-26.65l-.8-1.2a20.85 20.85 0 0 0 -7.45-15.15 23.85 23.85 0 0 0 -31.75.1 20.64 20.64 0 0 0 -7.25 15m17.7-3.4a7.76 7.76 0 0 1 5.5-2.1 8.06 8.06 0 0 1 5.45 2.1l1.35 1.6a105.28 105.28 0 0 0 -13.75.1 6.12 6.12 0 0 1 1.45-1.7m53.6 40.4v.05a59.5 59.5 0 0 1 11.3 34.7l4.05 55.25a14.84 14.84 0 0 0 4.3 10.3l15.15 17h-166l15.1-17a14.42 14.42 0 0 0 4.3-10.3l4.15-54.1a58.93 58.93 0 0 1 41.35-57.25 87.8 87.8 0 0 1 36.45 0 57.67 57.67 0 0 1 29.8 21.3z" fill="url(#a)"/><path d="m200.5 0q-83.05 0-141.8 58.75t-58.7 141.75q0 83.1 58.7 141.8t141.8 58.7q83.06 0 141.8-58.7t58.7-141.8q0-83.05-58.7-141.75t-141.8-58.75m-199.5 200.5q0-82.65 58.4-141t141.1-58.5q82.65 0 141.1 58.45t58.4 141.05q0 82.7-58.4 141.1t-141.1 58.4q-82.65 0-141.1-58.4t-58.4-141.1z" fill="#ccc"/></svg>