<?xml version="1.0" encoding="utf-8"?>
<!-- Generator: Adobe Illustrator 24.1.0, SVG Export Plug-In . SVG Version: 6.00 Build 0)  -->
<svg version="1.1" xmlns="http://www.w3.org/2000/svg" xmlns:xlink="http://www.w3.org/1999/xlink" x="0px" y="0px"
	 viewBox="0 0 200 200" style="enable-background:new 0 0 200 200;" xml:space="preserve">
<style type="text/css">
	.st0{fill:#E11617;}
	.st1{display:none;}
	.st2{display:inline;fill:#E11617;}
	.st3{display:inline;fill:#E1161A;}
	.st4{fill:#E1161A;}
</style>
<g id="Layer_1">
	<path class="st0" d="M100,6.45c51.584,0,93.55,41.966,93.55,93.55s-41.966,93.55-93.55,93.55S6.45,151.584,6.45,100
		S48.416,6.45,100,6.45 M100,0C44.772,0,0,44.772,0,100s44.772,100,100,100s100-44.772,100-100S155.228,0,100,0L100,0z"/>
</g>
<g id="Layer_9" class="st1">
	<path class="st2" d="M135.371,105.521c5.659,1.617,9.971,4.851,12.936,9.702c2.29,3.773,3.436,7.748,3.436,11.925v5.659
		c0,3.503-1.28,6.535-3.84,9.095c-2.561,2.56-5.593,3.84-9.096,3.84H61.193c-3.503,0-6.535-1.28-9.095-3.84s-3.84-5.592-3.84-9.095
		v-5.659c0-4.177,1.146-8.22,3.436-12.127c2.964-4.716,7.277-7.882,12.936-9.5l9.903-2.83c-4.042-4.177-6.872-8.96-8.489-14.35
		c-1.077-3.503-1.616-7.007-1.616-10.51c0-6.468,1.583-12.43,4.75-17.887c3.166-5.458,7.478-9.769,12.936-12.936
		c5.457-3.167,11.419-4.75,17.887-4.75s12.431,1.583,17.888,4.75s9.769,7.478,12.936,12.936c3.166,5.457,4.749,11.419,4.749,17.887
		c0,3.503-0.538,7.007-1.616,10.51c-1.617,5.39-4.447,10.173-8.489,14.35L135.371,105.521z M145.274,132.807v-5.659
		c0-3.503-1.078-6.704-3.233-9.601c-2.156-2.897-4.986-4.885-8.489-5.962l-14.148-4.042c-5.929,3.908-12.396,5.861-19.403,5.861
		s-13.475-1.954-19.403-5.861l-14.148,4.042c-3.503,1.078-6.333,3.065-8.488,5.962c-2.156,2.897-3.234,6.097-3.234,9.601v5.659
		c0,1.751,0.64,3.268,1.92,4.548c1.28,1.28,2.797,1.92,4.548,1.92h77.613c1.752,0,3.268-0.64,4.548-1.92
		C144.635,136.074,145.274,134.558,145.274,132.807z M100,48.726c-5.255,0-10.105,1.314-14.553,3.941
		c-4.446,2.627-7.983,6.165-10.61,10.611c-2.628,4.447-3.941,9.298-3.941,14.553s1.313,10.106,3.941,14.553
		c2.627,4.446,6.164,7.983,10.61,10.611c4.447,2.627,9.298,3.941,14.553,3.941s10.106-1.314,14.553-3.941s7.983-6.165,10.611-10.611
		c2.627-4.447,3.941-9.298,3.941-14.553s-1.314-10.106-3.941-14.553c-2.628-4.446-6.165-7.983-10.611-10.611
		S105.255,48.726,100,48.726z"/>
</g>
<g id="Layer_3" class="st1">
	<path class="st3" d="M142.849,145.274c0.674,0,1.247,0.235,1.719,0.707s0.707,1.045,0.707,1.719v1.616
		c0,0.674-0.235,1.247-0.707,1.719s-1.045,0.707-1.719,0.707H70.896c-4.447,0-8.253-1.583-11.42-4.75
		c-3.167-3.166-4.75-6.973-4.75-11.42V64.428c0-4.447,1.583-8.254,4.75-11.42c3.167-3.167,6.973-4.75,11.42-4.75h69.528
		c1.348,0,2.492,0.472,3.436,1.415s1.415,2.088,1.415,3.436v74.38c0,0.943-0.27,1.818-0.809,2.627s-1.28,1.415-2.224,1.819
		c-0.403,1.752-0.605,3.907-0.605,6.468s0.202,4.851,0.605,6.872H142.849z M70.896,125.871h3.233V54.726h-3.233
		c-2.695,0-4.985,0.943-6.873,2.83c-1.886,1.886-2.83,4.177-2.83,6.872v64.678C64.023,126.949,67.257,125.871,70.896,125.871z
		 M136.381,132.339H70.896c-3.1,0-5.491,0.64-7.176,1.92c-1.684,1.28-2.526,2.796-2.526,4.548s0.842,3.268,2.526,4.548
		c1.685,1.28,4.076,1.92,7.176,1.92h65.485C135.707,140.963,135.707,136.65,136.381,132.339z M138.807,125.871V54.726h-58.21v71.146
		H138.807z M92.724,80.597c-0.674,0-1.246-0.235-1.718-0.707s-0.707-1.045-0.707-1.719v-1.616c0-0.674,0.235-1.247,0.707-1.719
		s1.044-0.707,1.718-0.707h33.956c0.674,0,1.246,0.235,1.718,0.707s0.708,1.045,0.708,1.719v1.616c0,0.674-0.236,1.247-0.708,1.719
		s-1.044,0.707-1.718,0.707H92.724z M129.105,89.49c0-0.674-0.236-1.247-0.708-1.719s-1.044-0.707-1.718-0.707H92.724
		c-0.674,0-1.246,0.235-1.718,0.707s-0.707,1.045-0.707,1.719v1.616c0,0.674,0.235,1.247,0.707,1.719s1.044,0.707,1.718,0.707
		h33.956c0.674,0,1.246-0.235,1.718-0.707s0.708-1.045,0.708-1.719V89.49z"/>
</g>
<g id="Layer_4" class="st1">
	<path class="st3" d="M163.061,122.637c0.404,0,0.775,0.168,1.112,0.505s0.505,0.708,0.505,1.112v3.233
		c0,0.404-0.168,0.775-0.505,1.112s-0.708,0.505-1.112,0.505h-11.723c0.27,1.078,0.404,2.156,0.404,3.234
		c0,4.446-1.583,8.253-4.75,11.419c-3.166,3.167-6.973,4.75-11.42,4.75c-4.446,0-8.253-1.583-11.419-4.75
		c-3.167-3.166-4.75-6.973-4.75-11.419c0-1.078,0.135-2.156,0.404-3.234H80.192c0.27,1.078,0.404,2.156,0.404,3.234
		c0,4.446-1.583,8.253-4.75,11.419c-3.166,3.167-6.973,4.75-11.419,4.75c-4.447,0-8.253-1.583-11.42-4.75
		c-3.167-3.166-4.75-6.973-4.75-11.419v-29.105h6.468v16.17c2.965-2.156,6.198-3.234,9.702-3.234c2.56,0,4.951,0.572,7.175,1.718
		s4.144,2.729,5.761,4.75h35.572V60.992c0-0.809-0.337-1.517-1.011-2.123s-1.481-0.909-2.425-0.909H58.162
		c-0.943,0-1.752,0.303-2.426,0.909s-1.011,1.314-1.011,2.123v3.436h30.722c0.404,0,0.775,0.168,1.112,0.505
		s0.505,0.708,0.505,1.112v3.233c0,0.404-0.168,0.775-0.505,1.112s-0.708,0.505-1.112,0.505H36.939
		c-0.404,0-0.775-0.168-1.112-0.505s-0.505-0.708-0.505-1.112v-3.233c0-0.404,0.168-0.775,0.505-1.112s0.708-0.505,1.112-0.505
		h11.318v-3.436c0-2.695,0.978-4.952,2.931-6.771c1.954-1.819,4.278-2.729,6.974-2.729H109.5c2.694,0,5.019,0.909,6.973,2.729
		s2.931,4.076,2.931,6.771v9.903h8.894c3.638,0,6.67,1.28,9.095,3.84l16.979,16.979c2.56,2.425,3.84,5.457,3.84,9.095v21.829
		H163.061z M87.064,95.149c0,0.404-0.168,0.775-0.505,1.112s-0.708,0.505-1.112,0.505H36.939c-0.404,0-0.775-0.168-1.112-0.505
		s-0.505-0.708-0.505-1.112v-3.233c0-0.404,0.168-0.775,0.505-1.112s0.708-0.505,1.112-0.505h48.508
		c0.404,0,0.775,0.168,1.112,0.505s0.505,0.708,0.505,1.112V95.149z M91.915,83.831H43.407c-0.404,0-0.775-0.168-1.112-0.505
		s-0.505-0.708-0.505-1.112V78.98c0-0.404,0.168-0.775,0.505-1.112s0.708-0.505,1.112-0.505h48.508c0.404,0,0.775,0.168,1.112,0.505
		s0.505,0.708,0.505,1.112v3.233c0,0.404-0.168,0.775-0.505,1.112S92.319,83.831,91.915,83.831z M64.428,142.041
		c2.694,0,4.985-0.943,6.872-2.83c1.886-1.886,2.829-4.177,2.829-6.871c0-2.695-0.943-4.986-2.829-6.872
		c-1.887-1.887-4.178-2.83-6.872-2.83c-2.695,0-4.985,0.943-6.872,2.83c-1.887,1.886-2.83,4.177-2.83,6.872
		c0,2.694,0.943,4.985,2.83,6.871C59.442,141.097,61.732,142.041,64.428,142.041z M119.403,77.363v19.403h30.722l-0.202-0.606
		l-16.978-16.978c-1.348-1.213-2.897-1.819-4.648-1.819H119.403z M151.742,122.637v-19.403h-32.339v19.403h3.233
		c1.617-2.021,3.537-3.604,5.761-4.75s4.615-1.718,7.175-1.718c2.561,0,4.952,0.572,7.176,1.718s4.144,2.729,5.76,4.75H151.742z
		 M135.572,142.041c2.695,0,4.986-0.943,6.872-2.83c1.887-1.886,2.83-4.177,2.83-6.871c0-2.695-0.943-4.986-2.83-6.872
		c-1.886-1.887-4.177-2.83-6.872-2.83c-2.694,0-4.985,0.943-6.871,2.83c-1.887,1.886-2.83,4.177-2.83,6.872
		c0,2.694,0.943,4.985,2.83,6.871C130.587,141.097,132.878,142.041,135.572,142.041z"/>
</g>
<g id="Layer_5" class="st1">
	<path class="st3" d="M129.105,55.193c2.694,0,4.985,0.943,6.872,2.83c1.886,1.886,2.829,4.177,2.829,6.872v71.145
		c0,2.695-0.943,4.986-2.829,6.872c-1.887,1.887-4.178,2.83-6.872,2.83h-58.21c-2.695,0-4.986-0.943-6.873-2.83
		c-1.886-1.886-2.83-4.177-2.83-6.872V64.896c0-2.695,0.943-4.986,2.83-6.872c1.887-1.887,4.177-2.83,6.873-2.83h17.988
		c-0.135-0.539-0.202-1.078-0.202-1.617c0-3.099,1.111-5.76,3.335-7.983s4.885-3.335,7.983-3.335c3.1,0,5.761,1.111,7.984,3.335
		c2.223,2.224,3.334,4.885,3.334,7.983c0,0.539-0.066,1.078-0.201,1.617H129.105z M132.339,136.04V64.896
		c0-0.943-0.303-1.719-0.909-2.325s-1.381-0.909-2.324-0.909h-9.702v4.042c0,0.674-0.235,1.247-0.707,1.719
		s-1.044,0.707-1.718,0.707H83.022c-0.674,0-1.246-0.235-1.718-0.707s-0.708-1.045-0.708-1.719v-4.042h-9.701
		c-0.944,0-1.718,0.303-2.325,0.909s-0.91,1.382-0.91,2.325v71.145c0,0.943,0.303,1.719,0.91,2.325s1.381,0.909,2.325,0.909h58.21
		c0.943,0,1.718-0.303,2.324-0.909S132.339,136.983,132.339,136.04z M120.414,88.341l1.819,1.617
		c0.404,0.539,0.606,1.145,0.606,1.818s-0.202,1.213-0.606,1.617l-27.286,27.084c-0.539,0.404-1.146,0.606-1.819,0.606
		s-1.213-0.202-1.616-0.606L77.97,106.733c-0.539-0.404-0.809-0.943-0.809-1.617s0.27-1.28,0.809-1.818l1.616-1.617
		c0.539-0.539,1.112-0.809,1.719-0.809s1.179,0.27,1.718,0.809l10.105,10.105l23.851-23.647c0.539-0.404,1.145-0.606,1.818-0.606
		S120.01,87.802,120.414,88.341z M100,48.726c-1.348,0-2.492,0.472-3.436,1.415s-1.415,2.088-1.415,3.436s0.472,2.493,1.415,3.437
		s2.088,1.414,3.436,1.414s2.493-0.471,3.437-1.414s1.414-2.089,1.414-3.437s-0.471-2.492-1.414-3.436S101.348,48.726,100,48.726z"
		/>
</g>
<g id="Layer_6" class="st1">
	<path class="st3" d="M148.509,52.258c2.694,0,4.985,0.943,6.871,2.83c1.887,1.886,2.83,4.177,2.83,6.871v58.211
		c0,2.694-0.943,4.985-2.83,6.871c-1.886,1.887-4.177,2.83-6.871,2.83h-38.807l4.851,19.403h14.552c0.943,0,1.719,0.303,2.325,0.909
		s0.909,1.382,0.909,2.324c0,0.943-0.303,1.719-0.909,2.325s-1.382,0.909-2.325,0.909H70.896c-0.943,0-1.718-0.303-2.324-0.909
		s-0.91-1.382-0.91-2.325c0-0.942,0.304-1.718,0.91-2.324s1.381-0.909,2.324-0.909h14.552l4.852-19.403H51.492
		c-2.695,0-4.986-0.943-6.873-2.83c-1.886-1.886-2.83-4.177-2.83-6.871V61.959c0-2.694,0.943-4.985,2.83-6.871
		c1.887-1.887,4.177-2.83,6.873-2.83H148.509z M151.742,120.17V61.959c0-0.942-0.303-1.718-0.909-2.324s-1.382-0.909-2.324-0.909
		H51.492c-0.944,0-1.718,0.303-2.325,0.909s-0.91,1.382-0.91,2.324v58.211c0,0.942,0.303,1.718,0.91,2.324s1.381,0.909,2.325,0.909
		h97.017c0.942,0,1.718-0.303,2.324-0.909S151.742,121.112,151.742,120.17z M92.117,149.274h15.766l-3.233-12.936h-9.298
		L92.117,149.274z"/>
</g>
<g id="Layer_7" class="st1">
	<path class="st3" d="M133.354,108.59c-4.918,2.897-10.342,4.346-16.271,4.346c-2.829,0-5.592-0.337-8.286-1.011l-35.169,35.169
		c-3.234,3.099-7.074,4.648-11.521,4.648c-4.447,0-8.253-1.583-11.42-4.75c-3.167-3.166-4.75-6.973-4.75-11.42
		c0-4.446,1.55-8.286,4.649-11.521l35.168-35.168c-0.674-2.695-1.011-5.457-1.011-8.287c0-5.794,1.449-11.184,4.346-16.169
		c2.897-4.986,6.839-8.928,11.824-11.824c4.985-2.897,10.409-4.346,16.271-4.346s11.251,1.448,16.169,4.346
		c4.918,2.896,8.859,6.838,11.824,11.824c1.212,2.155,1.179,4.312-0.102,6.467c-1.28,2.156-3.133,3.234-5.558,3.234h-22.031
		l-4.042,6.468l4.042,6.468h22.031c2.425,0,4.277,1.078,5.558,3.234c1.28,2.155,1.313,4.312,0.102,6.467
		C142.213,101.752,138.272,105.693,133.354,108.59z M88.383,95.554l-33.148,33.147c-1.886,1.886-2.83,4.177-2.83,6.871
		c0,2.695,0.943,4.986,2.83,6.872c1.887,1.887,4.177,2.83,6.873,2.83c2.694,0,4.985-0.943,6.872-2.83l33.147-33.146
		C96.063,106.198,91.482,101.617,88.383,95.554z M68.777,135.774c-0.943,0.943-2.089,1.415-3.437,1.415s-2.492-0.472-3.436-1.415
		c-0.943-0.942-1.415-2.088-1.415-3.436s0.472-2.493,1.415-3.436c0.943-0.943,2.088-1.415,3.436-1.415s2.493,0.472,3.437,1.415
		c0.943,0.942,1.414,2.088,1.414,3.436S69.721,134.832,68.777,135.774z M113.85,93.532l-8.085-12.936l8.085-12.936h25.669
		c-2.291-3.907-5.424-7.04-9.399-9.398c-3.975-2.358-8.32-3.537-13.036-3.537s-9.062,1.146-13.036,3.436
		c-3.976,2.291-7.108,5.424-9.398,9.399c-2.291,3.975-3.437,8.32-3.437,13.036s1.146,9.062,3.437,13.036
		c2.29,3.976,5.423,7.108,9.398,9.399c3.975,2.29,8.32,3.436,13.036,3.436s9.062-1.179,13.036-3.537
		c3.976-2.358,7.108-5.491,9.399-9.398H113.85z"/>
</g>
<g id="Layer_8" class="st1">
	<path class="st3" d="M156.17,109.702c0.135,0.404,0.101,0.809-0.101,1.213c-0.202,0.404-0.506,0.674-0.91,0.809l-46.082,15.361
		c1.212,2.29,1.818,4.716,1.818,7.276c0,3.368-0.909,6.4-2.729,9.095c-1.819,2.695-4.244,4.648-7.276,5.861
		c-3.031,1.213-6.198,1.482-9.499,0.809c-3.302-0.674-6.063-2.189-8.287-4.548c-2.224-2.357-3.638-5.12-4.244-8.286
		c-0.606-3.167-0.304-6.165,0.909-8.995c1.213-2.829,3.032-5.12,5.457-6.871L65.621,66.449c-0.674-1.887-1.853-3.436-3.537-4.648
		c-1.684-1.213-3.537-1.819-5.558-1.819H41.367c-0.404,0-0.775-0.168-1.112-0.505s-0.505-0.708-0.505-1.112v-3.233
		c0-0.404,0.168-0.775,0.505-1.112s0.708-0.505,1.112-0.505h15.159c3.368,0,6.468,0.977,9.297,2.931
		c2.83,1.954,4.783,4.548,5.861,7.781l3.639,10.309l47.497-15.766c1.752-0.539,3.402-0.438,4.952,0.304s2.661,1.987,3.335,3.739
		l14.957,45.072l6.871-2.426c0.539-0.135,0.978-0.102,1.314,0.101s0.64,0.573,0.909,1.112L156.17,109.702z M77.546,80.597
		l13.542,37.998c1.213-0.27,2.426-0.404,3.639-0.404c3.638,0,6.939,1.146,9.903,3.436L140,109.904l-15.158-45.072l-19.605,6.468
		l5.053,15.159c0.135,0.539,0.102,0.977-0.101,1.313s-0.506,0.573-0.91,0.708l-3.031,1.212c-0.539,0.135-1.011,0.102-1.415-0.101
		s-0.674-0.572-0.809-1.111L98.97,73.523L77.546,80.597z M94.726,144.062c2.694,0,4.985-0.943,6.872-2.83
		c1.886-1.886,2.829-4.177,2.829-6.871c0-2.695-0.943-4.986-2.829-6.872c-1.887-1.887-4.178-2.83-6.872-2.83
		c-2.695,0-4.985,0.943-6.872,2.83c-1.887,1.886-2.83,4.177-2.83,6.872c0,2.694,0.943,4.985,2.83,6.871
		C89.741,143.119,92.031,144.062,94.726,144.062z"/>
</g>
<g id="Layer_2">
	<path class="st4" d="M159.827,104.935c1.348,0,2.492,0.472,3.436,1.415s1.415,2.088,1.415,3.436v29.105
		c0,1.348-0.472,2.492-1.415,3.436s-2.088,1.415-3.436,1.415h-29.105c-1.348,0-2.492-0.472-3.436-1.415s-1.415-2.088-1.415-3.436
		v-29.105c0-1.348,0.472-2.492,1.415-3.436s2.088-1.415,3.436-1.415h8.085v-9.701c0-0.943-0.303-1.719-0.909-2.325
		S136.516,92,135.572,92h-32.338v12.936h11.318c1.348,0,2.492,0.472,3.436,1.415s1.415,2.088,1.415,3.436v29.105
		c0,1.348-0.472,2.492-1.415,3.436s-2.088,1.415-3.436,1.415H85.447c-1.347,0-2.492-0.472-3.436-1.415s-1.415-2.088-1.415-3.436
		v-29.105c0-1.348,0.472-2.492,1.415-3.436s2.089-1.415,3.436-1.415h11.319V92H64.428c-0.943,0-1.718,0.303-2.324,0.909
		s-0.91,1.382-0.91,2.325v9.701h8.085c1.348,0,2.493,0.472,3.436,1.415c0.943,0.943,1.415,2.088,1.415,3.436v29.105
		c0,1.348-0.472,2.492-1.415,3.436c-0.942,0.943-2.088,1.415-3.436,1.415H40.173c-1.347,0-2.493-0.472-3.436-1.415
		c-0.943-0.943-1.415-2.088-1.415-3.436v-29.105c0-1.348,0.472-2.492,1.415-3.436c0.943-0.943,2.088-1.415,3.436-1.415h14.553
		v-9.701c0-2.695,0.943-4.986,2.83-6.872c1.887-1.887,4.177-2.83,6.872-2.83h32.339v-6.468H85.447c-1.347,0-2.492-0.472-3.436-1.415
		s-1.415-2.088-1.415-3.436V45.109c0-1.348,0.472-2.492,1.415-3.436s2.089-1.415,3.436-1.415h29.105
		c1.348,0,2.492,0.472,3.436,1.415s1.415,2.088,1.415,3.436v29.105c0,1.348-0.472,2.492-1.415,3.436s-2.088,1.415-3.436,1.415
		h-11.318v6.468h32.338c2.695,0,4.986,0.943,6.872,2.83c1.887,1.886,2.83,4.177,2.83,6.872v9.701H159.827z M67.661,111.403H41.79
		v25.871h25.871V111.403z M87.064,72.596h25.871V46.726H87.064V72.596z M112.936,111.403H87.064v25.871h25.871V111.403z
		 M158.21,137.274v-25.871h-25.871v25.871H158.21z"/>
</g>
</svg>
