<svg xmlns="http://www.w3.org/2000/svg" viewBox="0 0 48 48"><defs><style>.cls-1{fill:#eb0b43;}</style></defs><g id="Layer_2" data-name="Layer 2"><g id="Layer_1-2" data-name="Layer 1"><polygon class="cls-1" points="12.35 22.66 21.95 34.45 17.91 22.61 12.35 22.66"/><polygon class="cls-1" points="19.75 16.21 14.66 16.21 12.06 20.13 18.08 20.18 19.75 16.21"/><polygon class="cls-1" points="26.41 16.21 21.71 16.21 20.61 20.2 27.53 20.26 26.41 16.21"/><polygon class="cls-1" points="24.08 36.52 27.64 22.52 20.5 22.59 24.08 36.52"/><path class="cls-1" d="M24,0A24,24,0,1,0,48,24,24,24,0,0,0,24,0ZM39.21,21.18a1.22,1.22,0,0,1-.52.82,1.28,1.28,0,0,1-1.78-.31l-3.47-5.48H28.37l1.71,4.07,3.91,0a1,1,0,0,1,.76.32A1.07,1.07,0,0,1,34,22.47l-3.75,0L26.08,34.73,36.05,23l.4-.09a.71.71,0,0,1,.46.17.72.72,0,0,1,.11,1L24.93,39.52a1.11,1.11,0,0,1-1.55.19l-.18-.17L9,22.1A1.11,1.11,0,0,1,9,20.78l4.18-6.3a1.12,1.12,0,0,1,.93-.5h20a1.11,1.11,0,0,1,.92.47l4,5.77A1.26,1.26,0,0,1,39.21,21.18Z"/></g></g></svg>