<svg id="Layer_1" data-name="Layer 1" xmlns="http://www.w3.org/2000/svg" viewBox="0 0 100 100"><defs><style>.cls-1{fill:#00aeff;}</style></defs><path id="icon" class="cls-1" d="M50.31,51.12c4.81,0,11-7.74,11-15.88s-5-13.61-11-13.61S39.25,27.1,39.25,35.24,45.49,51.12,50.31,51.12Zm7.45.55L50,57.42l-7.92-5.79c-9.7,0-16.43,8.17-16.43,17.88l.1,1.94c0,9.22,48.27,9.22,48.27,0V69.26C74,59.55,67.47,51.67,57.76,51.67ZM29,51.43c3.72,0,8.53-6,8.53-12.25S33.73,28.69,29,28.69,20.5,32.9,20.5,39.18,25.31,51.43,29,51.43ZM23.63,69.15a18.13,18.13,0,0,1,5.08-12.93l-6-4.41c-7.48,0-12.68,6-12.68,13.51l.07,1.2c0,2.88,6.33,4.57,13.8,5.09a2.58,2.58,0,0,1-.15-.88ZM71,51.43c3.71,0,8.52-6,8.52-12.25S75.69,28.69,71,28.69s-8.53,4.21-8.53,10.49S67.26,51.43,71,51.43Zm6.34.38-6,4.41a18.13,18.13,0,0,1,5.08,12.93l-.09,1.58a2.58,2.58,0,0,1-.15.88c7.47-.52,13.8-2.21,13.8-5.09l.07-1.2C90,57.83,84.8,51.81,77.32,51.81Z"/></svg>